<svg width="23" height="23" viewBox="0 0 23 23" fill="none" xmlns="http://www.w3.org/2000/svg">
<path opacity="0.2" d="M4.25953 8.00324C6.84392 4.32693 11.1512 7.61517 11.1512 7.61517C11.1512 7.61517 10.7602 9.55232 13 13.3333C15.0675 16.4377 17.8171 18.0926 15.9754 19.4508C14.1337 20.809 13.0768 19.6604 11.1512 19.6448C9.3693 19.6304 8.78217 20.809 6.84392 19.8388C4.90566 18.8687 0.985996 12.6599 4.25953 8.00324Z" fill="#1E45CF"/>
<path d="M4.25953 8.00329C6.84392 4.32698 11.1512 7.61522 11.1512 7.61522C11.1512 7.61522 15.9754 4.22229 18.2152 8.00329C20.2827 11.1077 17.8171 18.0926 15.9754 19.4508C14.1337 20.809 13.0768 19.6605 11.1512 19.6449C9.3693 19.6304 8.78217 20.809 6.84392 19.8389C4.90566 18.8687 0.985996 12.6599 4.25953 8.00329Z" stroke="#1E45CF" stroke-width="1.73333" stroke-linecap="round"/>
<path d="M11.4445 4.88886C11.6667 3.99997 12.6001 2.17775 14.5556 1.99997" stroke="#1E45CF" stroke-width="1.73333" stroke-linecap="round"/>
</svg>
