<svg width="23" height="23" viewBox="0 0 23 23" fill="none" xmlns="http://www.w3.org/2000/svg">
<path opacity="0.2" d="M10.2222 11.5C10.2222 17.8889 17.9303 17.3907 16.5823 18.7386C15.2344 20.0865 13.4062 20.8438 11.5 20.8438C9.59376 20.8438 7.76559 20.0865 6.41767 18.7386C5.06975 17.3907 4.3125 15.5625 4.3125 13.6562C4.3125 7.90625 8.625 2.15625 11.5 2.15625C14.375 2.15625 10.2222 5.75 10.2222 11.5Z" fill="#1E45CF"/>
<path d="M16.7702 5.35109C15.136 2.90105 13.1657 1.4375 11.5 1.4375C9.8343 1.4375 7.86402 2.90105 6.22977 5.35109C4.55508 7.86492 3.59375 10.8918 3.59375 13.6562C3.59375 15.7531 4.42673 17.7641 5.90944 19.2468C7.39215 20.7295 9.40313 21.5625 11.5 21.5625C13.5969 21.5625 15.6079 20.7295 17.0906 19.2468C18.5733 17.7641 19.4062 15.7531 19.4062 13.6562C19.4062 10.8918 18.4449 7.86492 16.7702 5.35109ZM11.5 20.125C9.78496 20.1231 8.14072 19.441 6.928 18.2282C5.71529 17.0155 5.03315 15.3713 5.03125 13.6562C5.03125 11.1685 5.90453 8.43184 7.42648 6.14891C8.73191 4.19031 10.3689 2.875 11.5 2.875C12.3535 2.875 13.4945 3.6234 14.5637 4.8318L10.9609 8.86488C10.8785 8.95703 10.8212 9.06888 10.7946 9.18963C10.7681 9.31038 10.7731 9.43594 10.8092 9.55418C10.8453 9.67243 10.9114 9.77935 11.0009 9.86462C11.0904 9.94989 11.2004 10.0106 11.3203 10.0409L13.5305 10.5935L12.9465 13.5152C12.9092 13.702 12.9476 13.896 13.0532 14.0545C13.1588 14.213 13.323 14.3231 13.5098 14.3606C13.558 14.3706 13.6071 14.3754 13.6562 14.375C13.8222 14.3747 13.9829 14.317 14.1111 14.2117C14.2393 14.1064 14.3272 13.96 14.3597 13.7973L15.0785 10.2036C15.1147 10.0225 15.0799 9.83443 14.9812 9.67836C14.8825 9.52229 14.7275 9.41019 14.5484 9.36531L12.827 8.93496L15.4621 5.98359C15.4998 6.0384 15.5367 6.0932 15.5735 6.14891C17.0955 8.43184 17.9688 11.1685 17.9688 13.6562C17.9668 15.3713 17.2847 17.0155 16.072 18.2282C14.8593 19.441 13.215 20.1231 11.5 20.125Z" fill="#1E45CF"/>
</svg>
