<svg width="23" height="23" viewBox="0 0 23 23" fill="none" xmlns="http://www.w3.org/2000/svg">
<g clip-path="url(#clip0_1_1203)">
<path opacity="0.2" d="M11.5 7.67083V23C11.3927 22.9996 11.2872 22.9743 11.1933 22.9264L4.16555 19.3818C4.0652 19.3312 3.98143 19.2567 3.92299 19.1661C3.86455 19.0755 3.83359 18.9721 3.83333 18.8668V4.07245C3.83358 3.99002 3.85263 3.90856 3.88923 3.83334L11.5 7.67083Z" fill="#1E45CF"/>
<path d="M18.5533 3.57629L12.0661 0.141298C11.8928 0.0486156 11.698 0 11.5 0C11.302 0 11.1072 0.0486156 10.9338 0.141298L4.44666 3.57771C4.2614 3.67581 4.10675 3.82024 3.99886 3.99592C3.89098 4.17161 3.83381 4.3721 3.83333 4.57646V18.4235C3.83381 18.6279 3.89098 18.8284 3.99886 19.0041C4.10675 19.1798 4.2614 19.3242 4.44666 19.4223L10.9338 22.8587C11.1072 22.9514 11.302 23 11.5 23C11.698 23 11.8928 22.9514 12.0661 22.8587L18.5533 19.4223C18.7386 19.3242 18.8932 19.1798 19.0011 19.0041C19.109 18.8284 19.1662 18.6279 19.1667 18.4235V4.57718C19.1666 4.37245 19.1096 4.17151 19.0017 3.99542C18.8938 3.81932 18.7389 3.67456 18.5533 3.57629ZM11.5 1.14005L17.4225 4.27898L15.2279 5.44181L9.30468 2.30288L11.5 1.14005ZM11.5 7.41791L5.5775 4.27898L8.07653 2.95492L13.999 6.09385L11.5 7.41791ZM5.01282 5.27773L10.9103 8.40096V21.5453L5.01282 18.4243V5.27773ZM17.9872 18.4214L12.0897 21.5453V8.40382L14.4487 7.15467V9.70077C14.4487 9.85213 14.5108 9.99729 14.6214 10.1043C14.732 10.2114 14.882 10.2715 15.0385 10.2715C15.1949 10.2715 15.3449 10.2114 15.4555 10.1043C15.5661 9.99729 15.6282 9.85213 15.6282 9.70077V6.52974L17.9872 5.27773V18.4207V18.4214Z" fill="#1E45CF"/>
</g>
<defs>
<clipPath id="clip0_1_1203">
<rect width="23" height="23" fill="white"/>
</clipPath>
</defs>
</svg>
