<svg width="164" height="55" viewBox="0 0 164 55" fill="none" xmlns="http://www.w3.org/2000/svg">
<path d="M84.75 51.4744H26.25C12.8571 51.4744 2 40.6173 2 27.2244V27.2244C2 13.8315 12.8571 2.97437 26.25 2.97437V2.97437H84.75M106.5 51.4744H138.25C151.643 51.4744 162.5 40.6173 162.5 27.2244V27.2244C162.5 13.8315 151.643 2.97437 138.25 2.97437V2.97437L106.5 2.97437" stroke="#1E45CF" stroke-width="3" stroke-linecap="round" stroke-linejoin="round"/>
<path d="M23.8622 16.9212H29.5748L35.9393 38.6539H32.2448L30.7856 33.5933H22.6824L21.2232 38.6539H17.4976L23.8622 16.9212ZM23.5517 30.3334H29.9163L26.9048 19.9638H26.5322L23.5517 30.3334ZM42.8773 16.9212H48.3725V38.6539H44.7711V20.74H44.3986L40.9524 26.6078H37.1337L42.8773 16.9212ZM57.0581 16.9212H62.5533V38.6539H58.9519V20.74H58.5794L55.1332 26.6078H51.3145L57.0581 16.9212ZM65.4642 16.9212H69.5624L74.6851 26.5457H75.2129L80.3666 16.9212H84.4337L76.7652 31.0164V38.6539H73.1638V31.0164L65.4642 16.9212Z" fill="#1E45CF"/>
<path d="M108.369 16.7431H109.678V26H108.369V16.7431ZM112.803 16.7431H115.104L118.159 24.6908H118.318V16.7431H119.627V26H117.326L114.271 18.0391H114.112V26H112.803V16.7431Z" fill="#1E45CF"/>
<path d="M123.811 16.7431H125.318L127.672 21.0145H127.87L130.237 16.7431H131.732L128.426 22.6411V26H127.117V22.6411L123.811 16.7431ZM134.062 16.7431H139.973V17.9201H135.372V20.75H139.603V21.9402H135.372V24.8231H140.04V26H134.062V16.7431ZM149.543 19.5334C149.543 20.9881 148.644 21.9666 147.361 22.2311L149.371 26H147.93L146.026 22.3105H144.042V26H142.733V16.7564H146.621C148.313 16.7564 149.543 17.8143 149.543 19.5334ZM144.042 17.9333V21.1335H146.489C147.573 21.1335 148.234 20.5252 148.234 19.5334C148.234 18.5284 147.573 17.9333 146.489 17.9333H144.042Z" fill="#1E45CF"/>
<path d="M108.058 29.495H113.81V30.6719H109.367V33.5151H113.546V34.7053H109.367V38.7518H108.058V29.495ZM117.681 29.495H119.744L122.6 38.7518H121.225L120.551 36.5037H116.874L116.2 38.7518H114.825L117.681 29.495ZM117.205 35.3136H120.22L118.792 30.6322H118.633L117.205 35.3136ZM124.436 33.1448C124.436 30.7645 125.877 29.3098 128.165 29.3098C130.426 29.3098 131.67 30.5926 131.67 32.6423V32.9068H130.36V32.6291C130.36 31.3199 129.607 30.4735 128.165 30.4735C126.631 30.4735 125.745 31.5315 125.745 33.0787V35.1681C125.745 36.7682 126.618 37.7732 128.165 37.7732C129.726 37.7732 130.36 36.9401 130.36 35.6309V35.34H131.67V35.6177C131.67 37.6675 130.44 38.937 128.165 38.937C125.904 38.937 124.436 37.5749 124.436 35.102V33.1448ZM134.392 29.495H140.304V30.6719H135.702V33.5019H139.933V34.692H135.702V37.5749H140.37V38.7518H134.392V29.495Z" fill="#1E45CF"/>
<circle cx="95.5" cy="3.5" r="3.5" fill="#1E45CF"/>
<circle cx="95.5" cy="51.5" r="3.5" fill="#1E45CF"/>
<line x1="95.5" y1="16.5" x2="95.5" y2="39.5" stroke="#1E45CF" stroke-width="3" stroke-linecap="round" stroke-linejoin="round"/>
</svg>
