<svg width="23" height="23" viewBox="0 0 23 23" fill="none" xmlns="http://www.w3.org/2000/svg">
<path opacity="0.2" d="M19.5914 18.064C19.5683 18.2366 19.4834 18.3949 19.3523 18.5096C19.2213 18.6243 19.0531 18.6875 18.8789 18.6875H4.12118C3.94704 18.6875 3.77883 18.6243 3.64778 18.5096C3.51674 18.3949 3.43179 18.2366 3.40872 18.064L2.16259 8.72023C2.14901 8.6187 2.1573 8.51544 2.18689 8.41737C2.21648 8.31931 2.26669 8.2287 2.33416 8.15162C2.40163 8.07454 2.48479 8.01277 2.57807 7.97045C2.67136 7.92813 2.77261 7.90624 2.87505 7.90625C2.87505 7.90625 4.64423 9.95192 11.0577 11.0577C17.4712 12.1635 19.7761 16.679 19.5914 18.064Z" fill="white"/>
<path d="M12.2188 10.7813V15.8125C12.2188 16.0031 12.143 16.186 12.0083 16.3208C11.8735 16.4555 11.6906 16.5313 11.5 16.5313C11.3094 16.5313 11.1266 16.4555 10.9918 16.3208C10.857 16.186 10.7813 16.0031 10.7813 15.8125V10.7813C10.7813 10.5906 10.857 10.4078 10.9918 10.273C11.1266 10.1382 11.3094 10.0625 11.5 10.0625C11.6906 10.0625 11.8735 10.1382 12.0083 10.273C12.143 10.4078 12.2188 10.5906 12.2188 10.7813ZM21.5499 8.81459L20.3047 18.1592C20.2585 18.5046 20.0885 18.8214 19.8262 19.0508C19.564 19.2802 19.2273 19.4065 18.8789 19.4063H4.12115C3.77272 19.4065 3.43607 19.2802 3.1738 19.0508C2.91153 18.8214 2.7415 18.5046 2.69533 18.1592L1.4492 8.81549C1.42204 8.61235 1.43864 8.40575 1.49787 8.20955C1.55711 8.01335 1.65761 7.83209 1.79264 7.67791C1.92767 7.52374 2.09411 7.40022 2.28078 7.31564C2.46746 7.23106 2.67007 7.18738 2.87502 7.18752H6.14264L10.961 1.68279C11.0284 1.60631 11.1114 1.54506 11.2043 1.50311C11.2972 1.46115 11.398 1.43945 11.5 1.43945C11.602 1.43945 11.7028 1.46115 11.7957 1.50311C11.8887 1.54506 11.9716 1.60631 12.0391 1.68279L16.8574 7.18752H20.125C20.3297 7.18765 20.532 7.2315 20.7184 7.31614C20.9048 7.40078 21.071 7.52425 21.2058 7.67829C21.3406 7.83234 21.441 8.0134 21.5002 8.20936C21.5594 8.40532 21.576 8.61167 21.549 8.81459H21.5499ZM8.05271 7.18752H14.9473L11.5 3.24787L8.05271 7.18752ZM20.125 8.62502H2.87502L4.12115 17.9688H18.8789L20.125 8.62502ZM15.5286 10.7094L15.0255 15.7406C15.0155 15.8348 15.0243 15.9301 15.0513 16.0209C15.0783 16.1117 15.123 16.1962 15.1827 16.2697C15.2425 16.3432 15.3162 16.4041 15.3997 16.449C15.4831 16.4939 15.5745 16.5218 15.6688 16.5313C15.693 16.5326 15.7173 16.5326 15.7415 16.5313C15.9196 16.5311 16.0912 16.4648 16.2231 16.3453C16.3551 16.2258 16.438 16.0615 16.4558 15.8844L16.9589 10.8531C16.978 10.6635 16.9209 10.474 16.8003 10.3264C16.6796 10.1788 16.5053 10.0852 16.3156 10.0661C16.126 10.0471 15.9365 10.1041 15.7889 10.2248C15.6413 10.3454 15.5477 10.5197 15.5286 10.7094ZM7.47143 10.7094C7.45236 10.5197 7.35873 10.3454 7.21114 10.2248C7.06354 10.1041 6.87407 10.0471 6.68439 10.0661C6.49472 10.0852 6.32039 10.1788 6.19975 10.3264C6.07912 10.474 6.02205 10.6635 6.04111 10.8531L6.54424 15.8844C6.56212 16.0623 6.64566 16.2272 6.77857 16.3468C6.91147 16.4664 7.08419 16.5322 7.26299 16.5313C7.28723 16.5326 7.31152 16.5326 7.33576 16.5313C7.42968 16.5218 7.52082 16.494 7.60397 16.4493C7.68713 16.4047 7.76067 16.3441 7.8204 16.271C7.88014 16.1979 7.92489 16.1138 7.95211 16.0234C7.97933 15.933 7.98848 15.8382 7.97904 15.7442L7.47143 10.7094Z" fill="white"/>
</svg>
